<svg width="32" height="32" viewBox="0 0 32 32" fill="none" xmlns="http://www.w3.org/2000/svg">
<g clip-path="url(#clip0_1129_2)">
<path d="M6.64435 30.8009C-1.80282 25.9959 -1.77626 6.11465 6.51331 1.44657C14.8035 -3.2215 32 7.29641 32 16.2359C32 25.1748 15.0915 35.6065 6.64435 30.8009Z" fill="#FA994D"/>
<mask id="mask0_1129_2" style="mask-type:luminance" maskUnits="userSpaceOnUse" x="0" y="0" width="32" height="33">
<path d="M6.64435 30.8009C-1.80282 25.9959 -1.77626 6.11465 6.51331 1.44657C14.8035 -3.2215 32 7.29641 32 16.2359C32 25.1748 15.0915 35.6065 6.64435 30.8009Z" fill="url(#paint0_linear_1129_2)"/>
</mask>
<g mask="url(#mask0_1129_2)">
<path d="M6.64435 31.3299C-1.80282 26.5243 -1.77626 6.64365 6.51331 1.97559C14.8035 -2.69308 32 7.82543 32 16.7643C32 25.7038 15.0915 36.135 6.64435 31.3299Z" fill="url(#paint1_linear_1129_2)"/>
</g>
<path d="M0.303771 15.7501C0.362801 21.836 2.46839 27.8966 6.64419 30.2726C15.0075 35.0304 31.6669 24.8507 31.9951 15.9726C31.9981 16.0606 31.9999 16.1479 31.9999 16.2359C31.9999 25.1748 15.0914 35.6065 6.64419 30.8008C2.34679 28.357 0.24297 22.0102 0.303771 15.7501Z" fill="#DB466C"/>
<path d="M7.0547 16.9716H13.7031C13.7369 16.7354 13.7706 16.4654 13.7706 16.2123C13.7706 13.7824 12.1169 11.7575 9.58583 11.7575C6.95346 11.7575 5.16479 13.698 5.16479 16.1954C5.16479 18.7265 6.93658 20.6333 9.61957 20.6333C11.5095 20.6333 12.9775 19.6377 13.5006 18.0178L11.6445 18.0347C11.3407 18.6253 10.5814 19.064 9.65332 19.064C8.35401 19.064 7.32469 18.3553 7.0547 16.9716ZM7.03783 15.4698C7.29094 14.2211 8.21902 13.4112 9.58583 13.4112C10.6658 13.4112 11.6951 14.0355 11.9313 15.4698H7.03783Z" fill="white"/>
<path d="M22.2113 11.9769V13.2256C21.5701 12.3144 20.5745 11.7575 19.2246 11.7575C16.9297 11.7575 15.0229 13.6812 15.0229 16.111C15.0229 18.524 16.9297 20.4646 19.2246 20.4646C20.5745 20.4646 21.5701 19.9077 22.2113 18.9965V20.0258C22.2113 21.4939 21.3001 22.3545 19.714 22.3545C18.229 22.3545 17.3853 21.4939 17.3853 20.7177H15.5629C15.5629 22.7763 17.5709 24.0081 19.714 24.0081C21.8739 24.0081 24 22.7426 24 20.0258V11.9769H22.2113ZM19.5284 18.7603C17.9928 18.7603 16.8454 17.6297 16.8454 16.111C16.8454 14.5924 17.9928 13.4618 19.5284 13.4618C21.0639 13.4618 22.2113 14.5924 22.2113 16.111C22.2113 17.6297 21.0639 18.7603 19.5284 18.7603Z" fill="white"/>
</g>
<defs>
<linearGradient id="paint0_linear_1129_2" x1="1585.18" y1="3171.65" x2="1585.18" y2="0.30011" gradientUnits="userSpaceOnUse">
<stop stop-color="#FFA246"/>
<stop offset="1" stop-color="#E14A53"/>
</linearGradient>
<linearGradient id="paint1_linear_1129_2" x1="1585.18" y1="3172.18" x2="1585.18" y2="0.828918" gradientUnits="userSpaceOnUse">
<stop stop-color="#FFA246"/>
<stop offset="1" stop-color="#E14A53"/>
</linearGradient>
<clipPath id="clip0_1129_2">
<rect width="31.88" height="32" fill="white"/>
</clipPath>
</defs>
</svg>
