<svg width="1635" height="1681" viewBox="0 0 1635 1681" fill="none" xmlns="http://www.w3.org/2000/svg">
<path fill-rule="evenodd" clip-rule="evenodd" d="M1113.98 1233.52C1126.87 1225.95 1138.87 1217.28 1149.98 1207.52C1154.74 1205.98 1158.24 1207.64 1160.48 1212.52C1217.91 1313.05 1275.57 1413.38 1333.48 1513.52C1334.15 1515.52 1334.15 1517.52 1333.48 1519.52C1330.65 1523.69 1327.15 1527.19 1322.98 1530.02C1148.06 1649 955.064 1697.33 743.984 1675.02C546.054 1649.8 377.224 1566.97 237.484 1426.52C114.874 1297.29 39.5411 1143.96 11.4841 966.519C-21.0729 766.639 15.5931 580.642 121.484 408.519C273.527 163.811 494.024 28.311 782.984 2.01897C851.764 -2.74503 920.094 0.921973 987.984 13.019C993.104 13.674 997.944 15.174 1002.48 17.519C1003.15 20.519 1003.15 23.519 1002.48 26.519C950.244 135.336 898.244 244.336 846.484 353.519C844.024 358.168 840.194 361.002 834.984 362.019C679.424 368.044 553.924 431.877 458.484 553.519C374.294 670.306 345.964 799.639 373.484 941.519C403.104 1070.71 472.934 1171.54 582.984 1244.02C692.554 1310.67 810.554 1333 936.984 1311.02C1001.19 1296.57 1060.19 1270.74 1113.98 1233.52Z" fill="#EE482C"/>
<path opacity="0.999" fill-rule="evenodd" clip-rule="evenodd" d="M1259.98 59.5191C1320.08 56.3861 1373.41 73.5531 1419.98 111.019C1455.23 145.753 1470.06 187.92 1464.48 237.519C1459.61 281.778 1439.77 317.612 1404.98 345.019C1394.26 353.406 1383.26 361.406 1371.98 369.019C1338.97 387.528 1305.63 405.528 1271.98 423.019C1251.34 433.325 1234.84 448.158 1222.48 467.519C1217.57 475.898 1214.91 484.898 1214.48 494.519C1215.55 495.21 1216.71 495.71 1217.98 496.019C1297.31 496.352 1376.65 496.686 1455.98 497.019C1459.48 497.852 1461.65 500.019 1462.48 503.519C1462.65 507.519 1462.81 511.519 1462.98 515.519C1462.1 542.517 1461.93 569.517 1462.48 596.519C1461.7 598.305 1460.53 599.805 1458.98 601.019C1335.37 602.68 1211.7 603.013 1087.98 602.019C1085.25 601.621 1083.41 600.121 1082.48 597.519C1081.22 560.686 1084.89 524.353 1093.48 488.519C1106.7 438.344 1133.2 396.844 1172.98 364.019C1209.24 335.04 1248.9 311.373 1291.98 293.019C1310.32 284.099 1326.16 271.933 1339.48 256.519C1353.56 235.724 1354.56 214.391 1342.48 192.519C1332.48 179.428 1319.32 171.261 1302.98 168.019C1250.44 159.191 1207.94 175.691 1175.48 217.519C1168.38 228.052 1161.55 238.719 1154.98 249.519C1131.66 226.7 1108.49 203.7 1085.48 180.519C1084 177.317 1083.66 173.983 1084.48 170.519C1115.58 114.18 1162.74 79.0131 1225.98 65.0191C1237.38 62.6831 1248.71 60.8491 1259.98 59.5191Z" fill="#ED482C"/>
<path fill-rule="evenodd" clip-rule="evenodd" d="M1023.98 718.519C1157.24 719.349 1290.58 719.849 1423.98 720.019C1430.06 722.429 1434.56 726.599 1437.48 732.519C1501.64 844.849 1566.31 956.849 1631.48 1068.52C1635.65 1075.36 1635.98 1082.36 1632.48 1089.52C1565.89 1204.36 1499.56 1319.36 1433.48 1434.52C1432.1 1436.23 1430.44 1437.57 1428.48 1438.52C1426.81 1436.85 1425.15 1435.19 1423.48 1433.52C1358.15 1319.52 1292.81 1205.52 1227.48 1091.52C1224.07 1086.77 1219.57 1083.6 1213.98 1082.02C1078.65 1081.52 943.314 1081.35 807.984 1081.52C807.874 1077.33 808.714 1073.33 810.484 1069.52C876.404 956.019 942.074 842.349 1007.48 728.519C1011.55 722.739 1017.05 719.409 1023.98 718.519Z" fill="#EE482C"/>
</svg>
