<svg width="66" height="66" viewBox="0 0 66 66" fill="none" xmlns="http://www.w3.org/2000/svg">
<mask id="mask0_1126_85" style="mask-type:luminance" maskUnits="userSpaceOnUse" x="0" y="0" width="66" height="66">
<path d="M66 0H0V66H66V0Z" fill="white"/>
</mask>
<g mask="url(#mask0_1126_85)">
<path d="M3.31952 44.1971C7.33694 63.6996 21.327 65.4697 27.8197 63.917C38.6546 62.4262 48.9722 55.2215 52.7765 51.8055C68.6028 38.514 63.7331 25.6676 59.32 20.9057C48.8504 6.4962 32.4357 2.06562 25.5371 1.65164C1.67595 1.40315 0.783136 29.9117 3.31952 44.1971Z" stroke="white" stroke-width="1.2"/>
<path d="M14.3823 33.6225H27.3843C27.4503 33.1605 27.5163 32.6325 27.5163 32.1375C27.5163 27.3855 24.2823 23.4255 19.3323 23.4255C14.1843 23.4255 10.6863 27.2205 10.6863 32.1045C10.6863 37.0545 14.1513 40.7835 19.3983 40.7835C23.0943 40.7835 25.9653 38.8365 26.9883 35.6685L23.3583 35.7015C22.7643 36.8565 21.2793 37.7145 19.4643 37.7145C16.9233 37.7145 14.9103 36.3285 14.3823 33.6225ZM14.3493 30.6855C14.8443 28.2435 16.6593 26.6595 19.3323 26.6595C21.4443 26.6595 23.4573 27.8805 23.9193 30.6855H14.3493Z" fill="white"/>
<path d="M44.0236 23.8545V26.2965C42.7696 24.5145 40.8226 23.4255 38.1826 23.4255C33.6946 23.4255 29.9656 27.1875 29.9656 31.9395C29.9656 36.6585 33.6946 40.4535 38.1826 40.4535C40.8226 40.4535 42.7696 39.3645 44.0236 37.5825V39.5955C44.0236 42.4665 42.2416 44.1495 39.1396 44.1495C36.2356 44.1495 34.5856 42.4665 34.5856 40.9485H31.0216C31.0216 44.9745 34.9486 47.3835 39.1396 47.3835C43.3636 47.3835 47.5216 44.9085 47.5216 39.5955V23.8545H44.0236ZM38.7766 37.1205C35.7736 37.1205 33.5296 34.9095 33.5296 31.9395C33.5296 28.9695 35.7736 26.7585 38.7766 26.7585C41.7796 26.7585 44.0236 28.9695 44.0236 31.9395C44.0236 34.9095 41.7796 37.1205 38.7766 37.1205Z" fill="white"/>
</g>
</svg>
