<svg width="48" height="48" viewBox="0 0 48 48" fill="none" xmlns="http://www.w3.org/2000/svg">
<path d="M23.9758 28.23C24.5281 28.23 24.9758 27.7823 24.9758 27.23C24.9758 26.6777 24.5281 26.23 23.9758 26.23C23.4235 26.23 22.9758 26.6777 22.9758 27.23C22.9758 27.7823 23.4235 28.23 23.9758 28.23Z" fill="#444444"/>
<path d="M30.7149 22.333V18.963C30.7149 15.241 27.6979 12.224 23.9759 12.224C20.2539 12.224 17.2359 15.241 17.2359 18.964V22.333C16.7719 22.333 16.3939 22.71 16.3939 23.175V31.285C16.3939 33.145 17.9029 34.654 19.7639 34.654H28.1879C30.0479 34.654 31.5579 33.145 31.5579 31.284V23.175C31.5579 22.71 31.1799 22.333 30.7149 22.333ZM24.8179 29.605V31.442C24.8179 31.907 24.4409 32.284 23.9759 32.284C23.5109 32.284 23.1339 31.907 23.1339 31.442V29.605C21.9739 29.195 21.2769 28.008 21.4849 26.795C21.6929 25.582 22.7449 24.695 23.9759 24.695C25.2059 24.695 26.2589 25.582 26.4659 26.795C26.6749 28.008 25.9789 29.195 24.8179 29.605ZM18.9219 21.49V18.963C18.9219 16.172 21.1849 13.909 23.9759 13.909C26.7679 13.909 29.0309 16.172 29.0309 18.963V21.49H18.9199H18.9219ZM22.1429 3.579C22.2359 3.675 22.2779 3.809 22.2569 3.942L22.0339 5.314C22.0079 5.473 22.0739 5.633 22.2069 5.726C22.3379 5.819 22.5119 5.828 22.6529 5.75L23.7729 5.131C23.8989 5.061 24.0529 5.061 24.1799 5.131L25.2999 5.751C25.4399 5.828 25.6139 5.819 25.7459 5.726C25.8769 5.633 25.9449 5.473 25.9189 5.314L25.6949 3.942C25.6739 3.81 25.7149 3.675 25.8089 3.579L26.7729 2.591C26.8829 2.478 26.9209 2.313 26.8709 2.164C26.8209 2.014 26.6909 1.905 26.5349 1.881L25.2399 1.683C25.0999 1.662 24.9819 1.573 24.9219 1.446L24.3579 0.243C24.2879 0.094 24.1399 0 23.9759 0C23.8119 0 23.6639 0.094 23.5939 0.243L23.0299 1.445C22.9699 1.572 22.8509 1.661 22.7119 1.682L21.4169 1.88C21.2609 1.904 21.1319 2.013 21.0819 2.163C21.0319 2.313 21.0689 2.477 21.1789 2.59L22.1429 3.578V3.579ZM26.5349 44.001L25.2399 43.803C25.0999 43.782 24.9819 43.693 24.9219 43.565L24.3579 42.362C24.2879 42.214 24.1399 42.119 23.9759 42.119C23.8119 42.119 23.6639 42.214 23.5939 42.362L23.0299 43.565C22.9699 43.692 22.8509 43.782 22.7119 43.803L21.4169 44.001C21.2609 44.025 21.1319 44.134 21.0819 44.283C21.0319 44.433 21.0689 44.598 21.1789 44.711L22.1429 45.699C22.2359 45.795 22.2779 45.929 22.2569 46.061L22.0339 47.434C22.0079 47.593 22.0739 47.753 22.2069 47.845C22.3379 47.938 22.5119 47.948 22.6529 47.87L23.7729 47.25C23.8989 47.18 24.0529 47.18 24.1799 47.25L25.2999 47.87C25.4399 47.948 25.6139 47.938 25.7459 47.845C25.8769 47.753 25.9449 47.593 25.9189 47.434L25.6949 46.061C25.6739 45.929 25.7149 45.795 25.8089 45.699L26.7729 44.711C26.8829 44.598 26.9209 44.433 26.8709 44.283C26.8209 44.133 26.6909 44.025 26.5349 44.001ZM11.8839 6.427C11.9779 6.523 12.0199 6.657 11.9989 6.79L11.7749 8.162C11.7489 8.322 11.8159 8.482 11.9479 8.575C12.0799 8.667 12.2539 8.677 12.3949 8.598L13.5149 7.979C13.6409 7.909 13.7949 7.909 13.9219 7.979L15.0419 8.599C15.1819 8.676 15.3559 8.667 15.4879 8.574C15.6189 8.481 15.6869 8.321 15.6609 8.162L15.4369 6.79C15.4159 6.657 15.4579 6.523 15.5519 6.427L16.5159 5.439C16.6259 5.326 16.6639 5.161 16.6139 5.012C16.5639 4.862 16.4339 4.753 16.2779 4.729L14.9829 4.531C14.8429 4.511 14.7239 4.421 14.6639 4.294L14.0999 3.091C14.0299 2.945 13.8819 2.853 13.7199 2.853C13.5599 2.853 13.4119 2.945 13.3419 3.091L12.7719 4.294C12.7119 4.421 12.5939 4.51 12.4549 4.531L11.1589 4.729C11.0029 4.753 10.8739 4.862 10.8229 5.012C10.7729 5.162 10.8109 5.326 10.9209 5.439L11.8839 6.427ZM37.3369 41.205L36.0419 41.008C35.9019 40.987 35.7829 40.898 35.7229 40.77L35.1589 39.568C35.0889 39.42 34.9409 39.326 34.7779 39.326C34.6139 39.326 34.4659 39.42 34.3959 39.568L33.8319 40.77C33.7719 40.898 33.6529 40.987 33.5139 41.008L32.2189 41.206C32.0629 41.23 31.9329 41.338 31.8829 41.488C31.8329 41.638 31.8699 41.803 31.9799 41.916L32.9439 42.904C33.0379 43 33.0799 43.134 33.0589 43.266L32.8349 44.639C32.8089 44.798 32.8749 44.959 33.0079 45.051C33.1399 45.144 33.3129 45.153 33.4549 45.075L34.5749 44.455C34.7009 44.385 34.8549 44.385 34.9819 44.455L36.1019 45.075C36.2419 45.153 36.4159 45.143 36.5479 45.05C36.6789 44.958 36.7469 44.798 36.7209 44.639L36.4969 43.266C36.4749 43.134 36.5169 43 36.6109 42.904L37.5749 41.916C37.6849 41.803 37.7229 41.638 37.6729 41.488C37.6229 41.338 37.4929 41.229 37.3369 41.205ZM4.2399 13.702C4.3329 13.797 4.3749 13.932 4.3529 14.064L4.1299 15.435C4.1039 15.595 4.1719 15.755 4.3029 15.847C4.4349 15.94 4.6079 15.949 4.7489 15.872L5.8689 15.252C5.9959 15.182 6.1489 15.182 6.2769 15.252L7.3969 15.872C7.5369 15.949 7.7109 15.94 7.8419 15.847C7.9739 15.754 8.0419 15.594 8.0149 15.435L7.7919 14.063C7.7699 13.931 7.8119 13.796 7.9059 13.701L8.8699 12.712C8.9799 12.599 9.0179 12.434 8.9679 12.285C8.9179 12.135 8.7879 12.026 8.6319 12.002L7.3359 11.804C7.1979 11.784 7.0789 11.694 7.0189 11.567L6.4549 10.364C6.3849 10.216 6.2359 10.121 6.0729 10.121C5.9089 10.121 5.7609 10.216 5.6909 10.364L5.1269 11.567C5.0669 11.694 4.9479 11.783 4.8089 11.804L3.5139 12.002C3.3579 12.026 3.2289 12.135 3.1779 12.285C3.1279 12.435 3.1659 12.6 3.2759 12.712L4.2399 13.701V13.702ZM45.1079 33.063L43.8129 32.865C43.6729 32.844 43.5549 32.755 43.4949 32.628L42.9299 31.425C42.8599 31.277 42.7119 31.183 42.5489 31.183C42.3859 31.183 42.2369 31.277 42.1679 31.425L41.6029 32.628C41.5429 32.755 41.4239 32.844 41.2849 32.865L39.9889 33.063C39.8329 33.087 39.7039 33.196 39.6539 33.346C39.6039 33.496 39.6419 33.66 39.7519 33.773L40.7159 34.762C40.8099 34.857 40.8519 34.992 40.8309 35.124L40.6069 36.496C40.5809 36.656 40.6479 36.815 40.7799 36.908C40.9119 37.001 41.0849 37.01 41.2259 36.932L42.3459 36.313C42.4719 36.243 42.6259 36.243 42.7529 36.313L43.8729 36.933C44.0129 37.011 44.1869 37.001 44.3199 36.909C44.4519 36.816 44.5189 36.655 44.4929 36.496L44.2689 35.124C44.2469 34.992 44.2889 34.857 44.3819 34.762L45.3469 33.773C45.4569 33.66 45.4949 33.495 45.4439 33.346C45.3939 33.196 45.2639 33.087 45.1079 33.063ZM4.6859 26.785C4.8169 26.693 4.8849 26.533 4.8589 26.374L4.6359 25.001C4.6139 24.87 4.6559 24.735 4.7489 24.639L5.7129 23.651C5.8229 23.538 5.8609 23.373 5.8109 23.224C5.7609 23.074 5.6309 22.965 5.4759 22.941L4.1799 22.743C4.0409 22.722 3.9219 22.633 3.8619 22.505L3.2979 21.303C3.2279 21.154 3.0799 21.06 2.9159 21.06C2.7529 21.06 2.6039 21.154 2.5349 21.303L1.9699 22.505C1.9099 22.633 1.7919 22.722 1.6529 22.743L0.356896 22.941C0.200896 22.965 0.071896 23.074 0.021896 23.224C-0.028104 23.374 0.008896 23.538 0.118896 23.651L1.0829 24.639C1.1759 24.735 1.2189 24.869 1.1969 25.002L0.973896 26.374C0.947896 26.533 1.0149 26.693 1.1469 26.786C1.2789 26.879 1.4519 26.888 1.5929 26.81L2.7129 26.191C2.8389 26.121 2.9929 26.121 3.1199 26.191L4.2399 26.811C4.3799 26.888 4.5539 26.878 4.6859 26.786V26.785ZM47.8329 23.651C47.9429 23.538 47.9799 23.373 47.9299 23.224C47.8799 23.074 47.7499 22.965 47.5949 22.941L46.2989 22.743C46.1609 22.722 46.0419 22.633 45.9819 22.505L45.4179 21.303C45.3479 21.154 45.1989 21.06 45.0359 21.06C44.8719 21.06 44.7239 21.154 44.6539 21.303L44.0899 22.505C44.0299 22.633 43.9109 22.722 43.7719 22.743L42.4769 22.941C42.3209 22.965 42.1919 23.074 42.1419 23.224C42.0919 23.374 42.1289 23.538 42.2389 23.651L43.2029 24.639C43.2959 24.735 43.3379 24.869 43.3169 25.001L43.0939 26.374C43.0679 26.533 43.1339 26.693 43.2669 26.786C43.3979 26.878 43.5709 26.888 43.7129 26.81L44.8329 26.191C44.9589 26.121 45.1129 26.121 45.2399 26.191L46.3599 26.811C46.4999 26.888 46.6739 26.878 46.8059 26.786C46.9369 26.693 47.0049 26.533 46.9789 26.374L46.7549 25.001C46.7339 24.87 46.7749 24.735 46.8689 24.639L47.8329 23.651ZM9.0029 32.895L7.7079 32.697C7.5679 32.674 7.4479 32.582 7.3889 32.452L6.8249 31.25C6.7549 31.103 6.6069 31.008 6.4439 31.008C6.2809 31.008 6.1319 31.103 6.0629 31.25L5.4979 32.452C5.4379 32.58 5.3199 32.669 5.1809 32.69L3.8849 32.89C3.7289 32.914 3.5989 33.023 3.5489 33.173C3.4989 33.323 3.5369 33.488 3.6469 33.601L4.6109 34.589C4.7039 34.685 4.7469 34.819 4.7249 34.951L4.5009 36.327C4.4749 36.487 4.5419 36.647 4.6739 36.74C4.8059 36.833 4.9799 36.842 5.1209 36.764L6.2409 36.144C6.3669 36.074 6.5209 36.074 6.6479 36.144L7.7679 36.764C7.9079 36.842 8.0819 36.832 8.2139 36.739C8.3459 36.647 8.4129 36.487 8.3869 36.327L8.1629 34.955C8.1409 34.823 8.1829 34.689 8.2769 34.593L9.2409 33.605C9.3509 33.492 9.3889 33.327 9.3389 33.177C9.2889 33.027 9.1589 32.919 9.0029 32.895ZM41.0879 13.529C41.1809 13.625 41.2229 13.759 41.2009 13.891L40.9779 15.268C40.9519 15.427 41.0189 15.587 41.1509 15.679C41.2829 15.772 41.4559 15.782 41.5969 15.704L42.7169 15.084C42.8439 15.014 42.9969 15.014 43.1249 15.084L44.2449 15.704C44.3849 15.784 44.5609 15.776 44.6939 15.683C44.8269 15.59 44.8939 15.428 44.8669 15.268L44.6439 13.895C44.6229 13.763 44.6639 13.629 44.7579 13.533L45.7229 12.545C45.8329 12.432 45.8699 12.267 45.8199 12.117C45.7699 11.967 45.6399 11.859 45.4839 11.835L44.1889 11.637C44.0489 11.616 43.9309 11.527 43.8709 11.399L43.3069 10.197C43.2369 10.049 43.0889 9.954 42.9249 9.954C42.7619 9.954 42.6129 10.049 42.5429 10.197L41.9789 11.399C41.9189 11.527 41.7999 11.616 41.6619 11.637L40.3659 11.835C40.2099 11.859 40.0809 11.968 40.0309 12.117C39.9809 12.267 40.0179 12.432 40.1279 12.545L41.0879 13.529ZM15.9039 40.166L14.6089 39.968C14.4689 39.948 14.3509 39.858 14.2909 39.731L13.7269 38.528C13.6569 38.38 13.5089 38.285 13.3449 38.285C13.1809 38.285 13.0329 38.38 12.9629 38.528L12.3989 39.731C12.3389 39.858 12.2199 39.947 12.0809 39.968L10.7859 40.166C10.6299 40.19 10.5009 40.299 10.4509 40.449C10.4009 40.599 10.4379 40.763 10.5479 40.876L11.5139 41.863C11.6069 41.959 11.6489 42.093 11.6269 42.225L11.4039 43.597C11.3779 43.757 11.4459 43.917 11.5769 44.009C11.7089 44.102 11.8819 44.112 12.0229 44.034L13.1429 43.414C13.2699 43.344 13.4229 43.344 13.5509 43.414L14.6709 44.034C14.8109 44.112 14.9849 44.102 15.1159 44.009C15.2479 43.916 15.3159 43.757 15.2889 43.597L15.0659 42.224C15.0439 42.092 15.0859 41.958 15.1799 41.862L16.1419 40.876C16.2519 40.763 16.2899 40.598 16.2399 40.449C16.1899 40.299 16.0599 40.19 15.9039 40.166ZM32.6869 5.749L32.4639 7.121C32.4379 7.28 32.5049 7.44 32.6369 7.533C32.7689 7.625 32.9419 7.635 33.0829 7.557L34.2029 6.938C34.3299 6.868 34.4829 6.868 34.6099 6.938L35.7299 7.558C35.8709 7.635 36.0439 7.625 36.1759 7.533C36.3079 7.44 36.3749 7.28 36.3489 7.121L36.1259 5.749C36.1039 5.617 36.1459 5.482 36.2399 5.386L37.2019 4.401C37.3119 4.288 37.3489 4.123 37.2989 3.973C37.2489 3.823 37.1199 3.715 36.9639 3.691L35.6689 3.493C35.5289 3.471 35.4109 3.383 35.3509 3.255L34.7869 2.052C34.7169 1.904 34.5689 1.809 34.4049 1.809C34.2409 1.809 34.0929 1.904 34.0229 2.052L33.4599 3.255C33.3999 3.382 33.2809 3.471 33.1419 3.493L31.8469 3.691C31.6909 3.715 31.5619 3.824 31.5119 3.973C31.4619 4.123 31.4989 4.288 31.6089 4.401L32.5749 5.386C32.6679 5.482 32.7089 5.616 32.6869 5.749Z" fill="#444444"/>
</svg>
