<svg width="48" height="48" viewBox="0 0 48 48" fill="none" xmlns="http://www.w3.org/2000/svg">
<g clip-path="url(#clip0_1120_62)">
<path d="M23.9758 28.245C24.5281 28.245 24.9758 27.7973 24.9758 27.245C24.9758 26.6927 24.5281 26.245 23.9758 26.245C23.4235 26.245 22.9758 26.6927 22.9758 27.245C22.9758 27.7973 23.4235 28.245 23.9758 28.245Z" fill="#545454"/>
<path d="M30.7149 22.348V18.978C30.7149 15.256 27.6979 12.239 23.9759 12.239C20.2539 12.239 17.2359 15.256 17.2359 18.979V22.348C16.7719 22.348 16.3939 22.725 16.3939 23.19V31.3C16.3939 33.16 17.9029 34.669 19.7639 34.669H28.1879C30.0479 34.669 31.5579 33.16 31.5579 31.299V23.19C31.5579 22.725 31.1799 22.348 30.7149 22.348ZM24.8179 29.62V31.457C24.8179 31.922 24.4409 32.299 23.9759 32.299C23.5109 32.299 23.1339 31.922 23.1339 31.457V29.62C21.9739 29.21 21.2769 28.023 21.4849 26.81C21.6929 25.597 22.7449 24.71 23.9759 24.71C25.2059 24.71 26.2589 25.597 26.4659 26.81C26.6749 28.023 25.9789 29.21 24.8179 29.62ZM18.9219 21.505V18.978C18.9219 16.187 21.1849 13.924 23.9759 13.924C26.7679 13.924 29.0309 16.187 29.0309 18.978V21.505H18.9199H18.9219ZM22.1429 3.59401C22.2359 3.69001 22.2779 3.82401 22.2569 3.95701L22.0339 5.32901C22.0079 5.48801 22.0739 5.64801 22.2069 5.74101C22.3379 5.83401 22.5119 5.84301 22.6529 5.76501L23.7729 5.14601C23.8989 5.07601 24.0529 5.07601 24.1799 5.14601L25.2999 5.76601C25.4399 5.84301 25.6139 5.83401 25.7459 5.74101C25.8769 5.64801 25.9449 5.48801 25.9189 5.32901L25.6949 3.95701C25.6739 3.82501 25.7149 3.69001 25.8089 3.59401L26.7729 2.60601C26.8829 2.49301 26.9209 2.32801 26.8709 2.17901C26.8209 2.02901 26.6909 1.92001 26.5349 1.89601L25.2399 1.69801C25.0999 1.67701 24.9819 1.58801 24.9219 1.46101L24.3579 0.258015C24.2879 0.109015 24.1399 0.0150146 23.9759 0.0150146C23.8119 0.0150146 23.6639 0.109015 23.5939 0.258015L23.0299 1.46001C22.9699 1.58701 22.8509 1.67601 22.7119 1.69701L21.4169 1.89501C21.2609 1.91901 21.1319 2.02801 21.0819 2.17801C21.0319 2.32801 21.0689 2.49201 21.1789 2.60501L22.1429 3.59301V3.59401ZM26.5349 44.016L25.2399 43.818C25.0999 43.797 24.9819 43.708 24.9219 43.58L24.3579 42.377C24.2879 42.229 24.1399 42.134 23.9759 42.134C23.8119 42.134 23.6639 42.229 23.5939 42.377L23.0299 43.58C22.9699 43.707 22.8509 43.797 22.7119 43.818L21.4169 44.016C21.2609 44.04 21.1319 44.149 21.0819 44.298C21.0319 44.448 21.0689 44.613 21.1789 44.726L22.1429 45.714C22.2359 45.81 22.2779 45.944 22.2569 46.076L22.0339 47.449C22.0079 47.608 22.0739 47.768 22.2069 47.86C22.3379 47.953 22.5119 47.963 22.6529 47.885L23.7729 47.265C23.8989 47.195 24.0529 47.195 24.1799 47.265L25.2999 47.885C25.4399 47.963 25.6139 47.953 25.7459 47.86C25.8769 47.768 25.9449 47.608 25.9189 47.449L25.6949 46.076C25.6739 45.944 25.7149 45.81 25.8089 45.714L26.7729 44.726C26.8829 44.613 26.9209 44.448 26.8709 44.298C26.8209 44.148 26.6909 44.04 26.5349 44.016ZM11.8839 6.44201C11.9779 6.53801 12.0199 6.67201 11.9989 6.80501L11.7749 8.17701C11.7489 8.33701 11.8159 8.49701 11.9479 8.59001C12.0799 8.68201 12.2539 8.69201 12.3949 8.61301L13.5149 7.99401C13.6409 7.92401 13.7949 7.92401 13.9219 7.99401L15.0419 8.61401C15.1819 8.69101 15.3559 8.68201 15.4879 8.58901C15.6189 8.49601 15.6869 8.33601 15.6609 8.17701L15.4369 6.80501C15.4159 6.67201 15.4579 6.53801 15.5519 6.44201L16.5159 5.45401C16.6259 5.34101 16.6639 5.17601 16.6139 5.02701C16.5639 4.87701 16.4339 4.76801 16.2779 4.74401L14.9829 4.54601C14.8429 4.52601 14.7239 4.43601 14.6639 4.30901L14.0999 3.10601C14.0299 2.96001 13.8819 2.86801 13.7199 2.86801C13.5599 2.86801 13.4119 2.96001 13.3419 3.10601L12.7719 4.30901C12.7119 4.43601 12.5939 4.52501 12.4549 4.54601L11.1589 4.74401C11.0029 4.76801 10.8739 4.87701 10.8229 5.02701C10.7729 5.17701 10.8109 5.34101 10.9209 5.45401L11.8839 6.44201ZM37.3369 41.22L36.0419 41.023C35.9019 41.002 35.7829 40.913 35.7229 40.785L35.1589 39.583C35.0889 39.435 34.9409 39.341 34.7779 39.341C34.6139 39.341 34.4659 39.435 34.3959 39.583L33.8319 40.785C33.7719 40.913 33.6529 41.002 33.5139 41.023L32.2189 41.221C32.0629 41.245 31.9329 41.353 31.8829 41.503C31.8329 41.653 31.8699 41.818 31.9799 41.931L32.9439 42.919C33.0379 43.015 33.0799 43.149 33.0589 43.281L32.8349 44.654C32.8089 44.813 32.8749 44.974 33.0079 45.066C33.1399 45.159 33.3129 45.168 33.4549 45.09L34.5749 44.47C34.7009 44.4 34.8549 44.4 34.9819 44.47L36.1019 45.09C36.2419 45.168 36.4159 45.158 36.5479 45.065C36.6789 44.973 36.7469 44.813 36.7209 44.654L36.4969 43.281C36.4749 43.149 36.5169 43.015 36.6109 42.919L37.5749 41.931C37.6849 41.818 37.7229 41.653 37.6729 41.503C37.6229 41.353 37.4929 41.244 37.3369 41.22ZM4.2399 13.717C4.3329 13.812 4.3749 13.947 4.3529 14.079L4.1299 15.45C4.1039 15.61 4.1719 15.77 4.3029 15.862C4.4349 15.955 4.6079 15.964 4.7489 15.887L5.8689 15.267C5.9959 15.197 6.1489 15.197 6.2769 15.267L7.3969 15.887C7.5369 15.964 7.7109 15.955 7.8419 15.862C7.9739 15.769 8.0419 15.609 8.0149 15.45L7.7919 14.078C7.7699 13.946 7.8119 13.811 7.9059 13.716L8.8699 12.727C8.9799 12.614 9.0179 12.449 8.9679 12.3C8.9179 12.15 8.7879 12.041 8.6319 12.017L7.3359 11.819C7.1979 11.799 7.0789 11.709 7.0189 11.582L6.4549 10.379C6.3849 10.231 6.2359 10.136 6.0729 10.136C5.9089 10.136 5.7609 10.231 5.6909 10.379L5.1269 11.582C5.0669 11.709 4.9479 11.798 4.8089 11.819L3.5139 12.017C3.3579 12.041 3.2289 12.15 3.1779 12.3C3.1279 12.45 3.1659 12.615 3.2759 12.727L4.2399 13.716V13.717ZM45.1079 33.078L43.8129 32.88C43.6729 32.859 43.5549 32.77 43.4949 32.643L42.9299 31.44C42.8599 31.292 42.7119 31.198 42.5489 31.198C42.3859 31.198 42.2369 31.292 42.1679 31.44L41.6029 32.643C41.5429 32.77 41.4239 32.859 41.2849 32.88L39.9889 33.078C39.8329 33.102 39.7039 33.211 39.6539 33.361C39.6039 33.511 39.6419 33.675 39.7519 33.788L40.7159 34.777C40.8099 34.872 40.8519 35.007 40.8309 35.139L40.6069 36.511C40.5809 36.671 40.6479 36.83 40.7799 36.923C40.9119 37.016 41.0849 37.025 41.2259 36.947L42.3459 36.328C42.4719 36.258 42.6259 36.258 42.7529 36.328L43.8729 36.948C44.0129 37.026 44.1869 37.016 44.3199 36.924C44.4519 36.831 44.5189 36.67 44.4929 36.511L44.2689 35.139C44.2469 35.007 44.2889 34.872 44.3819 34.777L45.3469 33.788C45.4569 33.675 45.4949 33.51 45.4439 33.361C45.3939 33.211 45.2639 33.102 45.1079 33.078ZM4.6859 26.8C4.8169 26.708 4.8849 26.548 4.8589 26.389L4.6359 25.016C4.6139 24.885 4.6559 24.75 4.7489 24.654L5.7129 23.666C5.8229 23.553 5.8609 23.388 5.8109 23.239C5.7609 23.089 5.6309 22.98 5.4759 22.956L4.1799 22.758C4.0409 22.737 3.9219 22.648 3.8619 22.52L3.2979 21.318C3.2279 21.169 3.0799 21.075 2.9159 21.075C2.7529 21.075 2.6039 21.169 2.5349 21.318L1.9699 22.52C1.9099 22.648 1.7919 22.737 1.6529 22.758L0.356896 22.956C0.200896 22.98 0.071896 23.089 0.021896 23.239C-0.028104 23.389 0.008896 23.553 0.118896 23.666L1.0829 24.654C1.1759 24.75 1.2189 24.884 1.1969 25.017L0.973896 26.389C0.947896 26.548 1.0149 26.708 1.1469 26.801C1.2789 26.894 1.4519 26.903 1.5929 26.825L2.7129 26.206C2.8389 26.136 2.9929 26.136 3.1199 26.206L4.2399 26.826C4.3799 26.903 4.5539 26.893 4.6859 26.801V26.8ZM47.8329 23.666C47.9429 23.553 47.9799 23.388 47.9299 23.239C47.8799 23.089 47.7499 22.98 47.5949 22.956L46.2989 22.758C46.1609 22.737 46.0419 22.648 45.9819 22.52L45.4179 21.318C45.3479 21.169 45.1989 21.075 45.0359 21.075C44.8719 21.075 44.7239 21.169 44.6539 21.318L44.0899 22.52C44.0299 22.648 43.9109 22.737 43.7719 22.758L42.4769 22.956C42.3209 22.98 42.1919 23.089 42.1419 23.239C42.0919 23.389 42.1289 23.553 42.2389 23.666L43.2029 24.654C43.2959 24.75 43.3379 24.884 43.3169 25.016L43.0939 26.389C43.0679 26.548 43.1339 26.708 43.2669 26.801C43.3979 26.893 43.5709 26.903 43.7129 26.825L44.8329 26.206C44.9589 26.136 45.1129 26.136 45.2399 26.206L46.3599 26.826C46.4999 26.903 46.6739 26.893 46.8059 26.801C46.9369 26.708 47.0049 26.548 46.9789 26.389L46.7549 25.016C46.7339 24.885 46.7749 24.75 46.8689 24.654L47.8329 23.666ZM9.0029 32.91L7.7079 32.712C7.5679 32.689 7.4479 32.597 7.3889 32.467L6.8249 31.265C6.7549 31.118 6.6069 31.023 6.4439 31.023C6.2809 31.023 6.1319 31.118 6.0629 31.265L5.4979 32.467C5.4379 32.595 5.3199 32.684 5.1809 32.705L3.8849 32.905C3.7289 32.929 3.5989 33.038 3.5489 33.188C3.4989 33.338 3.5369 33.503 3.6469 33.616L4.6109 34.604C4.7039 34.7 4.7469 34.834 4.7249 34.966L4.5009 36.342C4.4749 36.502 4.5419 36.662 4.6739 36.755C4.8059 36.848 4.9799 36.857 5.1209 36.779L6.2409 36.159C6.3669 36.089 6.5209 36.089 6.6479 36.159L7.7679 36.779C7.9079 36.857 8.0819 36.847 8.2139 36.754C8.3459 36.662 8.4129 36.502 8.3869 36.342L8.1629 34.97C8.1409 34.838 8.1829 34.704 8.2769 34.608L9.2409 33.62C9.3509 33.507 9.3889 33.342 9.3389 33.192C9.2889 33.042 9.1589 32.934 9.0029 32.91ZM41.0879 13.544C41.1809 13.64 41.2229 13.774 41.2009 13.906L40.9779 15.283C40.9519 15.442 41.0189 15.602 41.1509 15.694C41.2829 15.787 41.4559 15.797 41.5969 15.719L42.7169 15.099C42.8439 15.029 42.9969 15.029 43.1249 15.099L44.2449 15.719C44.3849 15.799 44.5609 15.791 44.6939 15.698C44.8269 15.605 44.8939 15.443 44.8669 15.283L44.6439 13.91C44.6229 13.778 44.6639 13.644 44.7579 13.548L45.7229 12.56C45.8329 12.447 45.8699 12.282 45.8199 12.132C45.7699 11.982 45.6399 11.874 45.4839 11.85L44.1889 11.652C44.0489 11.631 43.9309 11.542 43.8709 11.414L43.3069 10.212C43.2369 10.064 43.0889 9.96901 42.9249 9.96901C42.7619 9.96901 42.6129 10.064 42.5429 10.212L41.9789 11.414C41.9189 11.542 41.7999 11.631 41.6619 11.652L40.3659 11.85C40.2099 11.874 40.0809 11.983 40.0309 12.132C39.9809 12.282 40.0179 12.447 40.1279 12.56L41.0879 13.544ZM15.9039 40.181L14.6089 39.983C14.4689 39.963 14.3509 39.873 14.2909 39.746L13.7269 38.543C13.6569 38.395 13.5089 38.3 13.3449 38.3C13.1809 38.3 13.0329 38.395 12.9629 38.543L12.3989 39.746C12.3389 39.873 12.2199 39.962 12.0809 39.983L10.7859 40.181C10.6299 40.205 10.5009 40.314 10.4509 40.464C10.4009 40.614 10.4379 40.778 10.5479 40.891L11.5139 41.878C11.6069 41.974 11.6489 42.108 11.6269 42.24L11.4039 43.612C11.3779 43.772 11.4459 43.932 11.5769 44.024C11.7089 44.117 11.8819 44.127 12.0229 44.049L13.1429 43.429C13.2699 43.359 13.4229 43.359 13.5509 43.429L14.6709 44.049C14.8109 44.127 14.9849 44.117 15.1159 44.024C15.2479 43.931 15.3159 43.772 15.2889 43.612L15.0659 42.239C15.0439 42.107 15.0859 41.973 15.1799 41.877L16.1419 40.891C16.2519 40.778 16.2899 40.613 16.2399 40.464C16.1899 40.314 16.0599 40.205 15.9039 40.181ZM32.6869 5.76401L32.4639 7.13601C32.4379 7.29501 32.5049 7.45501 32.6369 7.54801C32.7689 7.64001 32.9419 7.65001 33.0829 7.57201L34.2029 6.95301C34.3299 6.88301 34.4829 6.88301 34.6099 6.95301L35.7299 7.57301C35.8709 7.65001 36.0439 7.64001 36.1759 7.54801C36.3079 7.45501 36.3749 7.29501 36.3489 7.13601L36.1259 5.76401C36.1039 5.63201 36.1459 5.49701 36.2399 5.40101L37.2019 4.41601C37.3119 4.30301 37.3489 4.13801 37.2989 3.98801C37.2489 3.83801 37.1199 3.73001 36.9639 3.70601L35.6689 3.50801C35.5289 3.48601 35.4109 3.39801 35.3509 3.27001L34.7869 2.06701C34.7169 1.91901 34.5689 1.82401 34.4049 1.82401C34.2409 1.82401 34.0929 1.91901 34.0229 2.06701L33.4599 3.27001C33.3999 3.39701 33.2809 3.48601 33.1419 3.50801L31.8469 3.70601C31.6909 3.73001 31.5619 3.83901 31.5119 3.98801C31.4619 4.13801 31.4989 4.30301 31.6089 4.41601L32.5749 5.40101C32.6679 5.49701 32.7089 5.63101 32.6869 5.76401Z" fill="#545454"/>
</g>
<defs>
<clipPath id="clip0_1120_62">
<rect width="48" height="48" fill="white"/>
</clipPath>
</defs>
</svg>
